<svg id="Layer_1" data-name="Layer 1" xmlns="http://www.w3.org/2000/svg" width="101.5mm" height="16.68mm" viewBox="0 0 287.71 47.29"><defs><style>.cls-1{fill:#fff;}.cls-2{fill:#e30613;}.cls-3{fill:#1d1d1b;}</style></defs><title>oc-logo-full</title><rect class="cls-1" x="45.71" y="5.66" width="242" height="35.75"/><circle class="cls-1" cx="23.64" cy="23.64" r="23.64"/><rect class="cls-2" x="47.58" y="25.04" width="238.25" height="14.63"/><path class="cls-2" d="M44.89,22.16a21.35,21.35,0,0,0-42.61,0Z"/><path class="cls-2" d="M2.27,24.91a21.35,21.35,0,0,0,42.61,0Z"/><rect class="cls-3" x="127.5" y="7.65" width="14.55" height="14.63"/><rect class="cls-3" x="143.47" y="7.65" width="14.55" height="14.63"/><rect class="cls-3" x="111.53" y="7.65" width="14.55" height="14.63"/><rect class="cls-3" x="79.59" y="7.65" width="14.55" height="14.63"/><rect class="cls-3" x="159.44" y="7.65" width="14.55" height="14.63"/><rect class="cls-3" x="95.56" y="7.65" width="14.55" height="14.63"/><rect class="cls-3" x="63.62" y="7.65" width="14.55" height="14.63"/><rect class="cls-3" x="271.23" y="7.65" width="14.6" height="14.63"/><rect class="cls-3" x="255.26" y="7.65" width="14.55" height="14.63"/><rect class="cls-3" x="239.29" y="7.65" width="14.55" height="14.63"/><rect class="cls-3" x="47.58" y="7.65" width="14.63" height="14.63"/><rect class="cls-3" x="223.32" y="7.65" width="14.55" height="14.63"/><rect class="cls-3" x="191.38" y="7.65" width="14.55" height="14.63"/><rect class="cls-3" x="207.35" y="7.65" width="14.55" height="14.63"/><rect class="cls-3" x="175.41" y="7.65" width="14.55" height="14.63"/><path class="cls-1" d="M50.28,14.1c0-2.22,1.49-2.67,2.78-2.67h3.79c1.29,0,2.79.45,2.79,2.67v1.61c0,2.22-1.49,2.67-2.79,2.67H53.06c-1.29,0-2.78-.45-2.78-2.67Zm2.53,1.12c0,1,.57,1.25,1.73,1.25h.61c1.64,0,2-.21,2-1.11v-.92c0-.9-.32-1.11-2-1.11h-.61c-1.16,0-1.73.29-1.73,1.25Z"/><path class="cls-1" d="M66.33,11.54h2.53v1.08h0c.45-.94,1.33-1.19,2.69-1.19,1.57,0,3.76.07,3.76,3v3.87H72.81V14.41c0-.66-.53-1-1.64-1h-.58c-1.08,0-1.73.5-1.73,1.47v3.39H66.33Z"/><path class="cls-1" d="M114.08,11.54h2.53v1.08h0c.45-.94,1.33-1.19,2.69-1.19,1.57,0,3.76.07,3.76,3v3.87h-2.53V14.41c0-.66-.53-1-1.64-1h-.58c-1.08,0-1.73.5-1.73,1.47v3.39h-2.53Z"/><path class="cls-1" d="M226.08,11.54h2.53v1.08h0c.45-.94,1.33-1.19,2.69-1.19,1.57,0,3.76.07,3.76,3v3.87h-2.53V14.41c0-.66-.53-1-1.64-1h-.58c-1.08,0-1.73.5-1.73,1.47v3.39h-2.53Z"/><path class="cls-1" d="M257.91,11.54h2.53v1.08h0c.45-.94,1.33-1.19,2.69-1.19,1.57,0,3.76.07,3.76,3v3.87h-2.53V14.41c0-.66-.53-1-1.64-1h-.58c-1.08,0-1.73.5-1.73,1.47v3.39h-2.53Z"/><path class="cls-1" d="M273.74,14.08c0-2.09,1.07-2.64,3.09-2.64h1.48c1.28,0,1.58.16,2.22,1h0v-.92h2.38v6.31c0,1.4-.45,2.77-3.63,2.77h-2.8c-1.7,0-2.67-.41-2.67-2.1h2.61c0,.32.21.51.62.51h1.83c1.11,0,1.65-.36,1.65-1.49V17.1c-.5.5-.92.7-2.27.7h-1.33c-2.46,0-3.21-1-3.21-2.8ZM279,16c1.25,0,1.54-.33,1.54-1.35s-.29-1.37-1.54-1.37h-1.24c-1.25,0-1.54.34-1.54,1.37s.29,1.35,1.54,1.35Z"/><path class="cls-1" d="M130.51,14.54c0-2.55,1.27-3.1,3.12-3.1h1.77c2.69,0,3.8.57,3.8,2.9v1.13H133v.41c0,.71.5.91,1.56.91h.78c1.37,0,1.44-.37,1.44-.77h2.38v.29c0,1.69-1.5,2.06-3.34,2.06H134c-1.68,0-3.44-.32-3.44-3.19Zm6.23-.57c0-.81-.37-1-1.85-1-1.65,0-1.85.15-1.85,1Z"/><path class="cls-1" d="M194.18,14.54c0-2.55,1.27-3.1,3.12-3.1h1.77c2.69,0,3.8.57,3.8,2.9v1.13h-6.15v.41c0,.71.5.91,1.56.91H199c1.37,0,1.44-.37,1.44-.77h2.38v.29c0,1.69-1.5,2.06-3.34,2.06h-1.9c-1.68,0-3.44-.32-3.44-3.19Zm6.23-.57c0-.81-.37-1-1.85-1-1.65,0-1.85.15-1.85,1Z"/><path class="cls-1" d="M210.07,15.91c0-1.83,1.27-1.94,3.72-1.94,1.39,0,2.15,0,2.64.54v-.59c0-.66-.2-.9-1.19-.9h-1.49c-.74,0-1,.07-1,.54h-2.45c0-1.82.9-2.12,3-2.12h2.94c1.74,0,2.67.83,2.67,2.42v4.42h-2.4v-.77a2.32,2.32,0,0,1-2.23.87h-1.73c-1.54,0-2.53-.33-2.53-1.91Zm4.51.88c1.74,0,1.9-.26,1.9-.71s-.15-.69-1.54-.69h-1.12c-1.07,0-1.29.24-1.29.79s.34.61,1.33.61Z"/><path class="cls-1" d="M162.18,14.54c0-2.55,1.27-3.1,3.12-3.1h2.85c1.87,0,3,.69,3,2.23v.61h-2.46c0-.69-.36-.94-1.47-.94h-1c-1.06,0-1.56.29-1.56,1v.9c0,.87.55,1.14,1.35,1.14h1.29c.71,0,1.36-.16,1.36-.78v-.16h2.46v.59c0,1.81-1.5,2.32-3,2.32h-2.59c-1.68,0-3.44-.32-3.44-3.19Z"/><path class="cls-1" d="M85.6,9.67h2.53v8.61H85.6Z"/><path class="cls-1" d="M181.43,9.67H184v8.61h-2.53Z"/><path class="cls-1" d="M104.13,11.45H101.6V9.67h2.53Zm0,6.82H101.6V12.21h2.53Z"/><path class="cls-1" d="M247.8,11.45h-2.53V9.67h2.53Zm0,6.82h-2.53V12.21h2.53Z"/><path class="cls-1" d="M23.64,42.34c-7.71,0-14-8.43-14-18.8s6.27-18.8,14-18.8,14,8.43,14,18.8S31.36,42.34,23.64,42.34Zm0-36c-6.83,0-12.39,7.72-12.39,17.2s5.56,17.2,12.39,17.2S36,33,36,23.54,30.47,6.34,23.64,6.34Z"/><path class="cls-1" d="M23.64,38.34c-3.89,0-6-7.63-6-14.8s2.1-14.8,6-14.8,6,7.63,6,14.8S27.53,38.34,23.64,38.34Zm0-28c-2.08,0-4.39,5.42-4.39,13.2s2.31,13.2,4.39,13.2S28,31.31,28,23.54,25.72,10.34,23.64,10.34Z"/><path class="cls-1" d="M88.77,32.93v.43c0,.87-.09,1.22-.39,1.51a2.75,2.75,0,0,1-2,.49c-1.39,0-1.89-.1-2.32-.46s-.53-.69-.53-1.51V31.21h-1V29.86h1V28.6h2v1.27h3.22v1.35H85.55V33c0,.77.17,1,.86,1s.85-.16.85-.79v-.22Z"/><path class="cls-1" d="M104,33.52a1.41,1.41,0,0,1-.82,1.48,6.07,6.07,0,0,1-2.6.32,15,15,0,0,1-2.2-.14,1.91,1.91,0,0,1-1.38-1,3.48,3.48,0,0,1-.25-1.55c0-1.51.32-2.23,1.15-2.58a6.68,6.68,0,0,1,2.54-.28,11.88,11.88,0,0,1,2.13.14,1.68,1.68,0,0,1,1.3,1.2,4.38,4.38,0,0,1,.13,1.24v.59H98.73v.25a.84.84,0,0,0,.38.79,4.26,4.26,0,0,0,1.44.15c1.16,0,1.43-.12,1.47-.61ZM102,31.88c0-.76-.29-.91-1.67-.91-.85,0-1.2.06-1.4.25a.71.71,0,0,0-.24.56v.09Z"/><path class="cls-1" d="M117.3,31.92c0-.59-.38-.72-1.73-.72s-1.69.24-1.69,1.35c0,.66.15,1,.49,1.2a3.09,3.09,0,0,0,1.28.15c1.3,0,1.63-.15,1.69-.75h2c0,1.73-.81,2.21-3.64,2.21-1.69,0-2.55-.15-3.07-.55a2.54,2.54,0,0,1-.77-2.21c0-1.25.28-2,.87-2.39a5.69,5.69,0,0,1,2.88-.46c2.89,0,3.65.45,3.67,2.19Z"/><path class="cls-1" d="M127.42,27.56h2v3.29c.35-.87.84-1.12,2.28-1.12a3.06,3.06,0,0,1,2.51.75,2.56,2.56,0,0,1,.53,1.88v2.88h-2V32.65c0-.77,0-.9-.25-1.09a1.76,1.76,0,0,0-1.23-.29c-1.48,0-1.85.29-1.85,1.43v2.54h-2Z"/><path class="cls-1" d="M143.1,29.86H145v1.24c.26-1,.85-1.37,2.47-1.37a2.88,2.88,0,0,1,2.39.76,2.65,2.65,0,0,1,.49,1.89v2.85h-2V32.46c0-.94-.33-1.19-1.63-1.19s-1.7.35-1.7,1.53v2.43h-2Z"/><path class="cls-1" d="M164.68,29.89a1.79,1.79,0,0,1,1.35.9,4,4,0,0,1,.2,1.62c0,1.67-.14,2.13-.77,2.51a2.8,2.8,0,0,1-1.39.38c-.46,0-1.23.07-1.78.07-1.78,0-2.58-.14-3.08-.53s-.63-.83-.63-2.31.21-2.11.93-2.44a7.7,7.7,0,0,1,2.88-.35A15.67,15.67,0,0,1,164.68,29.89Zm-4.13,2.65c0,1.22.21,1.37,1.88,1.37s1.81-.15,1.81-1.32-.18-1.38-1.88-1.38S160.55,31.38,160.55,32.53Z"/><path class="cls-1" d="M174.38,27.56h2v7.67h-2Z"/><path class="cls-1" d="M190.65,29.89a1.79,1.79,0,0,1,1.35.9,4,4,0,0,1,.2,1.62c0,1.67-.14,2.13-.77,2.51a2.8,2.8,0,0,1-1.39.38c-.46,0-1.23.07-1.78.07-1.78,0-2.58-.14-3.08-.53s-.63-.83-.63-2.31.21-2.11.93-2.44a7.7,7.7,0,0,1,2.88-.35A15.67,15.67,0,0,1,190.65,29.89Zm-4.13,2.65c0,1.22.21,1.37,1.88,1.37s1.81-.15,1.81-1.32-.18-1.38-1.88-1.38S186.52,31.38,186.52,32.53Z"/><path class="cls-1" d="M202.33,35.82c.06.48.39.6,1.67.6.9,0,1.36-.1,1.62-.36s.25-.43.25-1.17V34.1c-.4.89-1,1.14-2.57,1.14a4.45,4.45,0,0,1-2.47-.51c-.53-.39-.71-1-.71-2.29s.2-1.92.81-2.28a4.8,4.8,0,0,1,2.46-.41c1.84,0,2.22.21,2.48,1.4V29.86h1.93V34.7c0,1.42-.12,1.89-.59,2.35a2.48,2.48,0,0,1-1.51.63,16.64,16.64,0,0,1-2,.12c-1.62,0-2.34-.15-2.85-.62a1.63,1.63,0,0,1-.52-1.35Zm.17-4.44c-.29.16-.39.43-.39,1.06,0,1.17.2,1.32,1.76,1.32,1.09,0,1.4,0,1.62-.23s.32-.43.32-1.06,0-.67-.16-.87-.53-.38-1.82-.38A2.84,2.84,0,0,0,202.5,31.38Z"/><path class="cls-1" d="M216.2,27.56h2V29h-2Zm0,2.3h2v5.37h-2Z"/><path class="cls-1" d="M233.59,33.52a1.41,1.41,0,0,1-.82,1.48,6.07,6.07,0,0,1-2.6.32,15,15,0,0,1-2.2-.14,1.91,1.91,0,0,1-1.38-1,3.48,3.48,0,0,1-.25-1.55c0-1.51.32-2.23,1.15-2.58a6.68,6.68,0,0,1,2.54-.28,11.88,11.88,0,0,1,2.13.14,1.68,1.68,0,0,1,1.3,1.2,4.36,4.36,0,0,1,.13,1.24v.59h-5.23v.25a.84.84,0,0,0,.38.79,4.26,4.26,0,0,0,1.44.15c1.16,0,1.43-.12,1.47-.61Zm-1.92-1.65c0-.76-.29-.91-1.67-.91-.85,0-1.2.06-1.4.25a.71.71,0,0,0-.24.56v.09Z"/><path class="cls-1" d="M243.58,33.58c0,.47.32.56,1.81.56,1.17,0,1.55-.13,1.55-.5s-.17-.4-.58-.43c-.2,0-.47,0-1,0h-1c-2.15,0-2.81-.38-2.81-1.65a1.46,1.46,0,0,1,1-1.6,10.87,10.87,0,0,1,2.66-.22,6.22,6.22,0,0,1,2.85.35c.41.22.59.58.62,1.27h-2.08c0-.31-.3-.38-1.38-.38s-1.63.12-1.63.45.24.4,1.3.4h1.39c2.11,0,2.68.37,2.68,1.69a1.46,1.46,0,0,1-1.07,1.62,11.66,11.66,0,0,1-2.95.23,5.74,5.74,0,0,1-2.73-.33,1.47,1.47,0,0,1-.74-1.45Z"/></svg>